<mxfile host="app.diagrams.net" agent="Mozilla/5.0 (Windows NT 10.0; Win64; x64) AppleWebKit/537.36 (KHTML, like Gecko) Chrome/138.0.0.0 Safari/537.36" version="28.1.1">
  <diagram name="Page-1" id="HZ13aiCzjSSbUonSLgMY">
    <mxGraphModel dx="4053" dy="1405" grid="1" gridSize="10" guides="1" tooltips="1" connect="1" arrows="1" fold="1" page="1" pageScale="1" pageWidth="850" pageHeight="1100" math="0" shadow="0">
      <root>
        <mxCell id="0" />
        <mxCell id="1" parent="0" />
        <mxCell id="7sSPWeFGZ5AwuCD8jJyG-1" value="ทบทวนสัญลักษณ์" style="swimlane;fontFamily=Sarabun;fontSource=https%3A%2F%2Ffonts.googleapis.com%2Fcss%3Ffamily%3DSarabun;" vertex="1" parent="1">
          <mxGeometry x="-720" y="20" width="640" height="290" as="geometry" />
        </mxCell>
        <mxCell id="7sSPWeFGZ5AwuCD8jJyG-2" value="&lt;font data-font-src=&quot;https://fonts.googleapis.com/css?family=Sarabun&quot; face=&quot;Sarabun&quot;&gt;เริ่มต้น&lt;/font&gt;" style="ellipse;whiteSpace=wrap;html=1;" vertex="1" parent="7sSPWeFGZ5AwuCD8jJyG-1">
          <mxGeometry x="20" y="40" width="130" height="30" as="geometry" />
        </mxCell>
        <mxCell id="7sSPWeFGZ5AwuCD8jJyG-3" value="" style="endArrow=classic;html=1;rounded=0;" edge="1" parent="7sSPWeFGZ5AwuCD8jJyG-1">
          <mxGeometry width="50" height="50" relative="1" as="geometry">
            <mxPoint x="84.5" y="70" as="sourcePoint" />
            <mxPoint x="84.5" y="120" as="targetPoint" />
          </mxGeometry>
        </mxCell>
        <mxCell id="7sSPWeFGZ5AwuCD8jJyG-4" value="&lt;font face=&quot;Sarabun&quot;&gt;สิ้นสุด&lt;/font&gt;" style="ellipse;whiteSpace=wrap;html=1;" vertex="1" parent="7sSPWeFGZ5AwuCD8jJyG-1">
          <mxGeometry x="150" y="90" width="130" height="30" as="geometry" />
        </mxCell>
        <mxCell id="7sSPWeFGZ5AwuCD8jJyG-5" value="" style="endArrow=classic;html=1;rounded=0;" edge="1" parent="7sSPWeFGZ5AwuCD8jJyG-1">
          <mxGeometry width="50" height="50" relative="1" as="geometry">
            <mxPoint x="214.5" y="40" as="sourcePoint" />
            <mxPoint x="214.5" y="90" as="targetPoint" />
          </mxGeometry>
        </mxCell>
        <mxCell id="7sSPWeFGZ5AwuCD8jJyG-6" value="กระบวนการ" style="rounded=0;whiteSpace=wrap;html=1;fontFamily=Sarabun;fontSource=https%3A%2F%2Ffonts.googleapis.com%2Fcss%3Ffamily%3DSarabun;" vertex="1" parent="7sSPWeFGZ5AwuCD8jJyG-1">
          <mxGeometry x="320" y="70" width="120" height="30" as="geometry" />
        </mxCell>
        <mxCell id="7sSPWeFGZ5AwuCD8jJyG-7" value="" style="endArrow=classic;html=1;rounded=0;" edge="1" parent="7sSPWeFGZ5AwuCD8jJyG-1">
          <mxGeometry width="50" height="50" relative="1" as="geometry">
            <mxPoint x="379" y="40" as="sourcePoint" />
            <mxPoint x="379.5" y="70" as="targetPoint" />
          </mxGeometry>
        </mxCell>
        <mxCell id="7sSPWeFGZ5AwuCD8jJyG-8" value="" style="endArrow=classic;html=1;rounded=0;" edge="1" parent="7sSPWeFGZ5AwuCD8jJyG-1">
          <mxGeometry width="50" height="50" relative="1" as="geometry">
            <mxPoint x="379.75" y="100" as="sourcePoint" />
            <mxPoint x="380.25" y="130" as="targetPoint" />
          </mxGeometry>
        </mxCell>
        <mxCell id="7sSPWeFGZ5AwuCD8jJyG-9" value="ประโยคเงื่อนไข" style="rhombus;whiteSpace=wrap;html=1;fontFamily=Sarabun;fontSource=https%3A%2F%2Ffonts.googleapis.com%2Fcss%3Ffamily%3DSarabun;" vertex="1" parent="7sSPWeFGZ5AwuCD8jJyG-1">
          <mxGeometry x="490" y="60" width="100" height="60" as="geometry" />
        </mxCell>
        <mxCell id="7sSPWeFGZ5AwuCD8jJyG-10" value="" style="endArrow=classic;html=1;rounded=0;" edge="1" parent="7sSPWeFGZ5AwuCD8jJyG-1">
          <mxGeometry width="50" height="50" relative="1" as="geometry">
            <mxPoint x="539.71" y="30" as="sourcePoint" />
            <mxPoint x="540.21" y="60" as="targetPoint" />
          </mxGeometry>
        </mxCell>
        <mxCell id="7sSPWeFGZ5AwuCD8jJyG-11" value="" style="endArrow=classic;html=1;rounded=0;" edge="1" parent="7sSPWeFGZ5AwuCD8jJyG-1">
          <mxGeometry width="50" height="50" relative="1" as="geometry">
            <mxPoint x="539.71" y="120" as="sourcePoint" />
            <mxPoint x="540" y="175" as="targetPoint" />
          </mxGeometry>
        </mxCell>
        <mxCell id="7sSPWeFGZ5AwuCD8jJyG-12" value="จริง" style="edgeLabel;html=1;align=center;verticalAlign=middle;resizable=0;points=[];fontFamily=Sarabun;fontSource=https%3A%2F%2Ffonts.googleapis.com%2Fcss%3Ffamily%3DSarabun;" vertex="1" connectable="0" parent="7sSPWeFGZ5AwuCD8jJyG-11">
          <mxGeometry x="-0.4142" y="-1" relative="1" as="geometry">
            <mxPoint as="offset" />
          </mxGeometry>
        </mxCell>
        <mxCell id="7sSPWeFGZ5AwuCD8jJyG-13" value="" style="endArrow=classic;html=1;rounded=0;exitX=1;exitY=0.5;exitDx=0;exitDy=0;" edge="1" parent="7sSPWeFGZ5AwuCD8jJyG-1" source="7sSPWeFGZ5AwuCD8jJyG-9">
          <mxGeometry width="50" height="50" relative="1" as="geometry">
            <mxPoint x="620" y="95" as="sourcePoint" />
            <mxPoint x="610" y="175" as="targetPoint" />
            <Array as="points">
              <mxPoint x="610" y="90" />
            </Array>
          </mxGeometry>
        </mxCell>
        <mxCell id="7sSPWeFGZ5AwuCD8jJyG-14" value="&lt;font data-font-src=&quot;https://fonts.googleapis.com/css?family=Sarabun&quot; face=&quot;Sarabun&quot;&gt;เท็จ&lt;/font&gt;" style="edgeLabel;html=1;align=center;verticalAlign=middle;resizable=0;points=[];" vertex="1" connectable="0" parent="7sSPWeFGZ5AwuCD8jJyG-13">
          <mxGeometry x="-0.0019" y="-2" relative="1" as="geometry">
            <mxPoint as="offset" />
          </mxGeometry>
        </mxCell>
        <mxCell id="7sSPWeFGZ5AwuCD8jJyG-15" value="&lt;font data-font-src=&quot;https://fonts.googleapis.com/css?family=Sarabun&quot; face=&quot;Sarabun&quot;&gt;ฟังก์ชัน/โมดูล&lt;/font&gt;" style="shape=process;whiteSpace=wrap;html=1;backgroundOutline=1;" vertex="1" parent="7sSPWeFGZ5AwuCD8jJyG-1">
          <mxGeometry x="25" y="180" width="120" height="30" as="geometry" />
        </mxCell>
        <mxCell id="7sSPWeFGZ5AwuCD8jJyG-16" value="" style="endArrow=classic;html=1;rounded=0;" edge="1" parent="7sSPWeFGZ5AwuCD8jJyG-1">
          <mxGeometry width="50" height="50" relative="1" as="geometry">
            <mxPoint x="84.70999999999998" y="150" as="sourcePoint" />
            <mxPoint x="85.20999999999998" y="180" as="targetPoint" />
          </mxGeometry>
        </mxCell>
        <mxCell id="7sSPWeFGZ5AwuCD8jJyG-17" value="" style="endArrow=classic;html=1;rounded=0;" edge="1" parent="7sSPWeFGZ5AwuCD8jJyG-1">
          <mxGeometry width="50" height="50" relative="1" as="geometry">
            <mxPoint x="84.70999999999998" y="210" as="sourcePoint" />
            <mxPoint x="85.20999999999998" y="240" as="targetPoint" />
          </mxGeometry>
        </mxCell>
        <mxCell id="7sSPWeFGZ5AwuCD8jJyG-18" value="" style="strokeWidth=2;html=1;shape=mxgraph.flowchart.start_2;whiteSpace=wrap;" vertex="1" parent="7sSPWeFGZ5AwuCD8jJyG-1">
          <mxGeometry x="205" y="185" width="20" height="20" as="geometry" />
        </mxCell>
        <mxCell id="7sSPWeFGZ5AwuCD8jJyG-19" value="" style="endArrow=classic;html=1;rounded=0;" edge="1" parent="7sSPWeFGZ5AwuCD8jJyG-1">
          <mxGeometry width="50" height="50" relative="1" as="geometry">
            <mxPoint x="214.70999999999998" y="155" as="sourcePoint" />
            <mxPoint x="215.20999999999998" y="185" as="targetPoint" />
          </mxGeometry>
        </mxCell>
        <mxCell id="7sSPWeFGZ5AwuCD8jJyG-20" value="" style="endArrow=classic;html=1;rounded=0;entryX=0;entryY=0.5;entryDx=0;entryDy=0;entryPerimeter=0;" edge="1" parent="7sSPWeFGZ5AwuCD8jJyG-1" target="7sSPWeFGZ5AwuCD8jJyG-18">
          <mxGeometry width="50" height="50" relative="1" as="geometry">
            <mxPoint x="189.99999999999997" y="155" as="sourcePoint" />
            <mxPoint x="190.49999999999997" y="185" as="targetPoint" />
            <Array as="points">
              <mxPoint x="190" y="180" />
            </Array>
          </mxGeometry>
        </mxCell>
        <mxCell id="7sSPWeFGZ5AwuCD8jJyG-21" value="" style="endArrow=classic;html=1;rounded=0;entryX=1;entryY=0.5;entryDx=0;entryDy=0;entryPerimeter=0;" edge="1" parent="7sSPWeFGZ5AwuCD8jJyG-1" target="7sSPWeFGZ5AwuCD8jJyG-18">
          <mxGeometry width="50" height="50" relative="1" as="geometry">
            <mxPoint x="239.99999999999997" y="155" as="sourcePoint" />
            <mxPoint x="240.49999999999997" y="185" as="targetPoint" />
            <Array as="points">
              <mxPoint x="240" y="180" />
            </Array>
          </mxGeometry>
        </mxCell>
        <mxCell id="7sSPWeFGZ5AwuCD8jJyG-22" value="" style="endArrow=classic;html=1;rounded=0;" edge="1" parent="7sSPWeFGZ5AwuCD8jJyG-1">
          <mxGeometry width="50" height="50" relative="1" as="geometry">
            <mxPoint x="214.70999999999998" y="205" as="sourcePoint" />
            <mxPoint x="215.20999999999998" y="235" as="targetPoint" />
          </mxGeometry>
        </mxCell>
        <mxCell id="7sSPWeFGZ5AwuCD8jJyG-23" value="&lt;font data-font-src=&quot;https://fonts.googleapis.com/css?family=Sarabun&quot; face=&quot;Sarabun&quot;&gt;ตัวเชื่อม&lt;/font&gt;" style="text;html=1;align=center;verticalAlign=middle;resizable=0;points=[];autosize=1;strokeColor=none;fillColor=none;" vertex="1" parent="7sSPWeFGZ5AwuCD8jJyG-1">
          <mxGeometry x="220" y="190" width="60" height="30" as="geometry" />
        </mxCell>
        <mxCell id="7sSPWeFGZ5AwuCD8jJyG-24" value="" style="endArrow=classic;html=1;rounded=0;" edge="1" parent="7sSPWeFGZ5AwuCD8jJyG-1">
          <mxGeometry width="50" height="50" relative="1" as="geometry">
            <mxPoint x="353.71" y="165" as="sourcePoint" />
            <mxPoint x="354.21" y="195" as="targetPoint" />
          </mxGeometry>
        </mxCell>
        <mxCell id="7sSPWeFGZ5AwuCD8jJyG-25" value="" style="verticalLabelPosition=bottom;verticalAlign=top;html=1;shape=offPageConnector;rounded=0;size=0.5;" vertex="1" parent="7sSPWeFGZ5AwuCD8jJyG-1">
          <mxGeometry x="339" y="195" width="30" height="30" as="geometry" />
        </mxCell>
        <mxCell id="7sSPWeFGZ5AwuCD8jJyG-26" value="" style="endArrow=classic;html=1;rounded=0;" edge="1" parent="7sSPWeFGZ5AwuCD8jJyG-1">
          <mxGeometry width="50" height="50" relative="1" as="geometry">
            <mxPoint x="405.71" y="195" as="sourcePoint" />
            <mxPoint x="406.21" y="225" as="targetPoint" />
          </mxGeometry>
        </mxCell>
        <mxCell id="7sSPWeFGZ5AwuCD8jJyG-27" value="" style="verticalLabelPosition=bottom;verticalAlign=top;html=1;shape=offPageConnector;rounded=0;size=0.5;" vertex="1" parent="7sSPWeFGZ5AwuCD8jJyG-1">
          <mxGeometry x="391" y="165" width="30" height="30" as="geometry" />
        </mxCell>
        <mxCell id="7sSPWeFGZ5AwuCD8jJyG-28" value="หน้าต่อไป" style="text;html=1;align=center;verticalAlign=middle;resizable=0;points=[];autosize=1;strokeColor=none;fillColor=none;fontFamily=Sarabun;fontSource=https%3A%2F%2Ffonts.googleapis.com%2Fcss%3Ffamily%3DSarabun;" vertex="1" parent="7sSPWeFGZ5AwuCD8jJyG-1">
          <mxGeometry x="345" y="220" width="70" height="30" as="geometry" />
        </mxCell>
        <mxCell id="7sSPWeFGZ5AwuCD8jJyG-29" value="ก" style="text;html=1;align=center;verticalAlign=middle;resizable=0;points=[];autosize=1;strokeColor=none;fillColor=none;fontFamily=Sarabun;fontSource=https%3A%2F%2Ffonts.googleapis.com%2Fcss%3Ffamily%3DSarabun;" vertex="1" parent="7sSPWeFGZ5AwuCD8jJyG-1">
          <mxGeometry x="339" y="190" width="30" height="30" as="geometry" />
        </mxCell>
        <mxCell id="7sSPWeFGZ5AwuCD8jJyG-30" value="ก" style="text;html=1;align=center;verticalAlign=middle;resizable=0;points=[];autosize=1;strokeColor=none;fillColor=none;fontFamily=Sarabun;fontSource=https%3A%2F%2Ffonts.googleapis.com%2Fcss%3Ffamily%3DSarabun;" vertex="1" parent="7sSPWeFGZ5AwuCD8jJyG-1">
          <mxGeometry x="391" y="160" width="30" height="30" as="geometry" />
        </mxCell>
        <mxCell id="7sSPWeFGZ5AwuCD8jJyG-31" value="แสดงผล/รับค่า" style="shape=parallelogram;perimeter=parallelogramPerimeter;whiteSpace=wrap;html=1;fixedSize=1;fontFamily=Sarabun;fontSource=https%3A%2F%2Ffonts.googleapis.com%2Fcss%3Ffamily%3DSarabun;" vertex="1" parent="7sSPWeFGZ5AwuCD8jJyG-1">
          <mxGeometry x="450" y="210" width="120" height="30" as="geometry" />
        </mxCell>
        <mxCell id="7sSPWeFGZ5AwuCD8jJyG-32" value="" style="endArrow=classic;html=1;rounded=0;" edge="1" parent="7sSPWeFGZ5AwuCD8jJyG-1">
          <mxGeometry width="50" height="50" relative="1" as="geometry">
            <mxPoint x="509.71" y="180" as="sourcePoint" />
            <mxPoint x="510.21" y="210" as="targetPoint" />
          </mxGeometry>
        </mxCell>
        <mxCell id="7sSPWeFGZ5AwuCD8jJyG-33" value="" style="endArrow=classic;html=1;rounded=0;" edge="1" parent="7sSPWeFGZ5AwuCD8jJyG-1">
          <mxGeometry width="50" height="50" relative="1" as="geometry">
            <mxPoint x="509.71" y="240" as="sourcePoint" />
            <mxPoint x="510.21" y="270" as="targetPoint" />
          </mxGeometry>
        </mxCell>
        <mxCell id="7sSPWeFGZ5AwuCD8jJyG-34" value="แก้ไขโจทย์ปัญหา" style="swimlane;fontFamily=Sarabun;fontSource=https%3A%2F%2Ffonts.googleapis.com%2Fcss%3Ffamily%3DSarabun;" vertex="1" parent="1">
          <mxGeometry x="-790" y="620" width="670" height="1830" as="geometry" />
        </mxCell>
        <mxCell id="7sSPWeFGZ5AwuCD8jJyG-35" value="&lt;font data-font-src=&quot;https://fonts.googleapis.com/css?family=Sarabun&quot; face=&quot;Sarabun&quot;&gt;เริ่มต้น&lt;/font&gt;" style="ellipse;whiteSpace=wrap;html=1;" vertex="1" parent="7sSPWeFGZ5AwuCD8jJyG-34">
          <mxGeometry x="260" y="40" width="130" height="30" as="geometry" />
        </mxCell>
        <mxCell id="7sSPWeFGZ5AwuCD8jJyG-36" style="edgeStyle=orthogonalEdgeStyle;rounded=0;orthogonalLoop=1;jettySize=auto;html=1;exitX=1;exitY=0.5;exitDx=0;exitDy=0;entryX=1;entryY=0.5;entryDx=0;entryDy=0;" edge="1" parent="7sSPWeFGZ5AwuCD8jJyG-34">
          <mxGeometry relative="1" as="geometry">
            <mxPoint x="385" y="1015" as="targetPoint" />
            <Array as="points">
              <mxPoint x="465" y="1140" />
              <mxPoint x="465" y="1015" />
            </Array>
          </mxGeometry>
        </mxCell>
        <mxCell id="7sSPWeFGZ5AwuCD8jJyG-37" style="edgeStyle=orthogonalEdgeStyle;rounded=0;orthogonalLoop=1;jettySize=auto;html=1;exitX=0.5;exitY=1;exitDx=0;exitDy=0;entryX=0;entryY=0;entryDx=59.375;entryDy=0;entryPerimeter=0;" edge="1" parent="7sSPWeFGZ5AwuCD8jJyG-34" source="7sSPWeFGZ5AwuCD8jJyG-35">
          <mxGeometry relative="1" as="geometry">
            <mxPoint x="326.875" y="100" as="targetPoint" />
          </mxGeometry>
        </mxCell>
        <mxCell id="7sSPWeFGZ5AwuCD8jJyG-38" style="edgeStyle=orthogonalEdgeStyle;rounded=0;orthogonalLoop=1;jettySize=auto;html=1;exitX=0.5;exitY=1;exitDx=0;exitDy=0;entryX=0.5;entryY=0;entryDx=0;entryDy=0;" edge="1" parent="7sSPWeFGZ5AwuCD8jJyG-34" source="7sSPWeFGZ5AwuCD8jJyG-39" target="7sSPWeFGZ5AwuCD8jJyG-41">
          <mxGeometry relative="1" as="geometry" />
        </mxCell>
        <mxCell id="7sSPWeFGZ5AwuCD8jJyG-39" value="ลูกค้ากดใช้งาน" style="rounded=0;whiteSpace=wrap;html=1;" vertex="1" parent="7sSPWeFGZ5AwuCD8jJyG-34">
          <mxGeometry x="265" y="100" width="120" height="30" as="geometry" />
        </mxCell>
        <mxCell id="7sSPWeFGZ5AwuCD8jJyG-40" style="edgeStyle=orthogonalEdgeStyle;rounded=0;orthogonalLoop=1;jettySize=auto;html=1;entryX=0.5;entryY=0;entryDx=0;entryDy=0;" edge="1" parent="7sSPWeFGZ5AwuCD8jJyG-34" source="7sSPWeFGZ5AwuCD8jJyG-41" target="7sSPWeFGZ5AwuCD8jJyG-43">
          <mxGeometry relative="1" as="geometry" />
        </mxCell>
        <mxCell id="7sSPWeFGZ5AwuCD8jJyG-41" value="ตรวจสอบรายการประเภทสินค้า" style="shape=process;whiteSpace=wrap;html=1;backgroundOutline=1;" vertex="1" parent="7sSPWeFGZ5AwuCD8jJyG-34">
          <mxGeometry x="265" y="160" width="120" height="40" as="geometry" />
        </mxCell>
        <mxCell id="7sSPWeFGZ5AwuCD8jJyG-42" style="edgeStyle=orthogonalEdgeStyle;rounded=0;orthogonalLoop=1;jettySize=auto;html=1;exitX=0.5;exitY=1;exitDx=0;exitDy=0;entryX=0.5;entryY=0;entryDx=0;entryDy=0;" edge="1" parent="7sSPWeFGZ5AwuCD8jJyG-34" source="7sSPWeFGZ5AwuCD8jJyG-43" target="7sSPWeFGZ5AwuCD8jJyG-51">
          <mxGeometry relative="1" as="geometry" />
        </mxCell>
        <mxCell id="7sSPWeFGZ5AwuCD8jJyG-43" value="ประเภทสินค้า" style="rounded=0;whiteSpace=wrap;html=1;" vertex="1" parent="7sSPWeFGZ5AwuCD8jJyG-34">
          <mxGeometry x="265" y="240" width="120" height="40" as="geometry" />
        </mxCell>
        <mxCell id="7sSPWeFGZ5AwuCD8jJyG-44" style="edgeStyle=orthogonalEdgeStyle;rounded=0;orthogonalLoop=1;jettySize=auto;html=1;entryX=0.5;entryY=0;entryDx=0;entryDy=0;" edge="1" parent="7sSPWeFGZ5AwuCD8jJyG-34" source="7sSPWeFGZ5AwuCD8jJyG-46" target="7sSPWeFGZ5AwuCD8jJyG-68">
          <mxGeometry relative="1" as="geometry" />
        </mxCell>
        <mxCell id="7sSPWeFGZ5AwuCD8jJyG-45" style="edgeStyle=orthogonalEdgeStyle;rounded=0;orthogonalLoop=1;jettySize=auto;html=1;exitX=0.5;exitY=0;exitDx=0;exitDy=0;entryX=0;entryY=0.5;entryDx=0;entryDy=0;" edge="1" parent="7sSPWeFGZ5AwuCD8jJyG-34" source="7sSPWeFGZ5AwuCD8jJyG-46" target="7sSPWeFGZ5AwuCD8jJyG-52">
          <mxGeometry relative="1" as="geometry" />
        </mxCell>
        <mxCell id="7sSPWeFGZ5AwuCD8jJyG-46" value="ประเภทน้ำ" style="rhombus;whiteSpace=wrap;html=1;" vertex="1" parent="7sSPWeFGZ5AwuCD8jJyG-34">
          <mxGeometry x="117.5" y="450" width="105" height="80" as="geometry" />
        </mxCell>
        <mxCell id="7sSPWeFGZ5AwuCD8jJyG-47" style="edgeStyle=orthogonalEdgeStyle;rounded=0;orthogonalLoop=1;jettySize=auto;html=1;exitX=0.5;exitY=1;exitDx=0;exitDy=0;entryX=0.5;entryY=0;entryDx=0;entryDy=0;" edge="1" parent="7sSPWeFGZ5AwuCD8jJyG-34" source="7sSPWeFGZ5AwuCD8jJyG-49" target="7sSPWeFGZ5AwuCD8jJyG-70">
          <mxGeometry relative="1" as="geometry" />
        </mxCell>
        <mxCell id="7sSPWeFGZ5AwuCD8jJyG-48" style="edgeStyle=orthogonalEdgeStyle;rounded=0;orthogonalLoop=1;jettySize=auto;html=1;entryX=1;entryY=0.5;entryDx=0;entryDy=0;" edge="1" parent="7sSPWeFGZ5AwuCD8jJyG-34" source="7sSPWeFGZ5AwuCD8jJyG-49" target="7sSPWeFGZ5AwuCD8jJyG-52">
          <mxGeometry relative="1" as="geometry">
            <mxPoint x="520" y="390" as="targetPoint" />
            <Array as="points">
              <mxPoint x="520" y="390" />
            </Array>
          </mxGeometry>
        </mxCell>
        <mxCell id="7sSPWeFGZ5AwuCD8jJyG-49" value="ประเภทขนม" style="rhombus;whiteSpace=wrap;html=1;" vertex="1" parent="7sSPWeFGZ5AwuCD8jJyG-34">
          <mxGeometry x="467.5" y="450" width="105" height="80" as="geometry" />
        </mxCell>
        <mxCell id="7sSPWeFGZ5AwuCD8jJyG-50" style="edgeStyle=orthogonalEdgeStyle;rounded=0;orthogonalLoop=1;jettySize=auto;html=1;entryX=0.5;entryY=0;entryDx=0;entryDy=0;" edge="1" parent="7sSPWeFGZ5AwuCD8jJyG-34" source="7sSPWeFGZ5AwuCD8jJyG-51" target="7sSPWeFGZ5AwuCD8jJyG-52">
          <mxGeometry relative="1" as="geometry" />
        </mxCell>
        <mxCell id="7sSPWeFGZ5AwuCD8jJyG-51" value="เลือกรายการสินค้า" style="rounded=0;whiteSpace=wrap;html=1;" vertex="1" parent="7sSPWeFGZ5AwuCD8jJyG-34">
          <mxGeometry x="270" y="310" width="120" height="40" as="geometry" />
        </mxCell>
        <mxCell id="7sSPWeFGZ5AwuCD8jJyG-52" value="" style="ellipse;whiteSpace=wrap;html=1;aspect=fixed;" vertex="1" parent="7sSPWeFGZ5AwuCD8jJyG-34">
          <mxGeometry x="310" y="370" width="40" height="40" as="geometry" />
        </mxCell>
        <mxCell id="7sSPWeFGZ5AwuCD8jJyG-53" style="edgeStyle=orthogonalEdgeStyle;rounded=0;orthogonalLoop=1;jettySize=auto;html=1;exitX=0.5;exitY=1;exitDx=0;exitDy=0;entryX=0.5;entryY=0;entryDx=0;entryDy=0;" edge="1" parent="7sSPWeFGZ5AwuCD8jJyG-34" source="7sSPWeFGZ5AwuCD8jJyG-54" target="7sSPWeFGZ5AwuCD8jJyG-56">
          <mxGeometry relative="1" as="geometry" />
        </mxCell>
        <mxCell id="7sSPWeFGZ5AwuCD8jJyG-54" value="&lt;span style=&quot;font-family: Sarabun; font-size: 14px; text-align: left; text-wrap-mode: nowrap;&quot;&gt;โค้ก 10บาท&lt;/span&gt;" style="rhombus;whiteSpace=wrap;html=1;" vertex="1" parent="7sSPWeFGZ5AwuCD8jJyG-34">
          <mxGeometry x="117.5" y="680" width="105" height="80" as="geometry" />
        </mxCell>
        <mxCell id="7sSPWeFGZ5AwuCD8jJyG-55" style="edgeStyle=orthogonalEdgeStyle;rounded=0;orthogonalLoop=1;jettySize=auto;html=1;entryX=0.5;entryY=0;entryDx=0;entryDy=0;" edge="1" parent="7sSPWeFGZ5AwuCD8jJyG-34" source="7sSPWeFGZ5AwuCD8jJyG-56" target="7sSPWeFGZ5AwuCD8jJyG-58">
          <mxGeometry relative="1" as="geometry" />
        </mxCell>
        <mxCell id="7sSPWeFGZ5AwuCD8jJyG-56" value="&lt;span style=&quot;font-family: Sarabun; font-size: 14px; text-align: left; text-wrap-mode: nowrap;&quot;&gt;น้ำเขียว 12บาท&lt;/span&gt;" style="rhombus;whiteSpace=wrap;html=1;" vertex="1" parent="7sSPWeFGZ5AwuCD8jJyG-34">
          <mxGeometry x="117.5" y="810" width="105" height="80" as="geometry" />
        </mxCell>
        <mxCell id="7sSPWeFGZ5AwuCD8jJyG-57" style="edgeStyle=orthogonalEdgeStyle;rounded=0;orthogonalLoop=1;jettySize=auto;html=1;entryX=0.5;entryY=0;entryDx=0;entryDy=0;" edge="1" parent="7sSPWeFGZ5AwuCD8jJyG-34" source="7sSPWeFGZ5AwuCD8jJyG-58" target="7sSPWeFGZ5AwuCD8jJyG-66">
          <mxGeometry relative="1" as="geometry" />
        </mxCell>
        <mxCell id="7sSPWeFGZ5AwuCD8jJyG-58" value="อเมริกาโน่ 30บาท" style="rhombus;whiteSpace=wrap;html=1;" vertex="1" parent="7sSPWeFGZ5AwuCD8jJyG-34">
          <mxGeometry x="117.5" y="940" width="105" height="80" as="geometry" />
        </mxCell>
        <mxCell id="7sSPWeFGZ5AwuCD8jJyG-59" style="edgeStyle=orthogonalEdgeStyle;rounded=0;orthogonalLoop=1;jettySize=auto;html=1;exitX=0.5;exitY=1;exitDx=0;exitDy=0;entryX=0.5;entryY=0;entryDx=0;entryDy=0;" edge="1" parent="7sSPWeFGZ5AwuCD8jJyG-34" source="7sSPWeFGZ5AwuCD8jJyG-60" target="7sSPWeFGZ5AwuCD8jJyG-64">
          <mxGeometry relative="1" as="geometry" />
        </mxCell>
        <mxCell id="7sSPWeFGZ5AwuCD8jJyG-60" value="เมล็ดทานตะวัน&lt;div&gt;13บาท&lt;/div&gt;" style="rhombus;whiteSpace=wrap;html=1;" vertex="1" parent="7sSPWeFGZ5AwuCD8jJyG-34">
          <mxGeometry x="467.5" y="690" width="105" height="80" as="geometry" />
        </mxCell>
        <mxCell id="7sSPWeFGZ5AwuCD8jJyG-61" style="edgeStyle=orthogonalEdgeStyle;rounded=0;orthogonalLoop=1;jettySize=auto;html=1;" edge="1" parent="7sSPWeFGZ5AwuCD8jJyG-34" source="7sSPWeFGZ5AwuCD8jJyG-62" target="7sSPWeFGZ5AwuCD8jJyG-80">
          <mxGeometry relative="1" as="geometry" />
        </mxCell>
        <mxCell id="7sSPWeFGZ5AwuCD8jJyG-62" value="จื้นส้มหมก&amp;nbsp;&lt;div&gt;15บาท&lt;/div&gt;" style="rhombus;whiteSpace=wrap;html=1;" vertex="1" parent="7sSPWeFGZ5AwuCD8jJyG-34">
          <mxGeometry x="467.5" y="940" width="105" height="80" as="geometry" />
        </mxCell>
        <mxCell id="7sSPWeFGZ5AwuCD8jJyG-63" style="edgeStyle=orthogonalEdgeStyle;rounded=0;orthogonalLoop=1;jettySize=auto;html=1;entryX=0.5;entryY=0;entryDx=0;entryDy=0;" edge="1" parent="7sSPWeFGZ5AwuCD8jJyG-34" source="7sSPWeFGZ5AwuCD8jJyG-64" target="7sSPWeFGZ5AwuCD8jJyG-62">
          <mxGeometry relative="1" as="geometry" />
        </mxCell>
        <mxCell id="7sSPWeFGZ5AwuCD8jJyG-64" value="ถั่วแปบ 20บาท" style="rhombus;whiteSpace=wrap;html=1;" vertex="1" parent="7sSPWeFGZ5AwuCD8jJyG-34">
          <mxGeometry x="467.5" y="810" width="105" height="80" as="geometry" />
        </mxCell>
        <mxCell id="7sSPWeFGZ5AwuCD8jJyG-65" style="edgeStyle=orthogonalEdgeStyle;rounded=0;orthogonalLoop=1;jettySize=auto;html=1;entryX=0.5;entryY=0;entryDx=0;entryDy=0;" edge="1" parent="7sSPWeFGZ5AwuCD8jJyG-34" source="7sSPWeFGZ5AwuCD8jJyG-66" target="7sSPWeFGZ5AwuCD8jJyG-77">
          <mxGeometry relative="1" as="geometry" />
        </mxCell>
        <mxCell id="7sSPWeFGZ5AwuCD8jJyG-66" value="ลาเต้ 35บาท" style="rhombus;whiteSpace=wrap;html=1;" vertex="1" parent="7sSPWeFGZ5AwuCD8jJyG-34">
          <mxGeometry x="117.5" y="1060" width="105" height="80" as="geometry" />
        </mxCell>
        <mxCell id="7sSPWeFGZ5AwuCD8jJyG-67" style="edgeStyle=orthogonalEdgeStyle;rounded=0;orthogonalLoop=1;jettySize=auto;html=1;exitX=0.5;exitY=1;exitDx=0;exitDy=0;entryX=0.5;entryY=0;entryDx=0;entryDy=0;" edge="1" parent="7sSPWeFGZ5AwuCD8jJyG-34" source="7sSPWeFGZ5AwuCD8jJyG-68" target="7sSPWeFGZ5AwuCD8jJyG-74">
          <mxGeometry relative="1" as="geometry" />
        </mxCell>
        <mxCell id="7sSPWeFGZ5AwuCD8jJyG-68" value="แสดงประเภทสินค้า" style="rounded=0;whiteSpace=wrap;html=1;" vertex="1" parent="7sSPWeFGZ5AwuCD8jJyG-34">
          <mxGeometry x="110" y="560" width="120" height="40" as="geometry" />
        </mxCell>
        <mxCell id="7sSPWeFGZ5AwuCD8jJyG-69" style="edgeStyle=orthogonalEdgeStyle;rounded=0;orthogonalLoop=1;jettySize=auto;html=1;entryX=0.5;entryY=0;entryDx=0;entryDy=0;" edge="1" parent="7sSPWeFGZ5AwuCD8jJyG-34" source="7sSPWeFGZ5AwuCD8jJyG-70" target="7sSPWeFGZ5AwuCD8jJyG-72">
          <mxGeometry relative="1" as="geometry" />
        </mxCell>
        <mxCell id="7sSPWeFGZ5AwuCD8jJyG-70" value="แสดงประเภทสินค้า" style="rounded=0;whiteSpace=wrap;html=1;" vertex="1" parent="7sSPWeFGZ5AwuCD8jJyG-34">
          <mxGeometry x="460" y="560" width="120" height="40" as="geometry" />
        </mxCell>
        <mxCell id="7sSPWeFGZ5AwuCD8jJyG-71" style="edgeStyle=orthogonalEdgeStyle;rounded=0;orthogonalLoop=1;jettySize=auto;html=1;entryX=0.5;entryY=0;entryDx=0;entryDy=0;" edge="1" parent="7sSPWeFGZ5AwuCD8jJyG-34" source="7sSPWeFGZ5AwuCD8jJyG-72" target="7sSPWeFGZ5AwuCD8jJyG-60">
          <mxGeometry relative="1" as="geometry" />
        </mxCell>
        <mxCell id="7sSPWeFGZ5AwuCD8jJyG-72" value="" style="ellipse;whiteSpace=wrap;html=1;aspect=fixed;" vertex="1" parent="7sSPWeFGZ5AwuCD8jJyG-34">
          <mxGeometry x="505" y="620" width="30" height="30" as="geometry" />
        </mxCell>
        <mxCell id="7sSPWeFGZ5AwuCD8jJyG-73" style="edgeStyle=orthogonalEdgeStyle;rounded=0;orthogonalLoop=1;jettySize=auto;html=1;exitX=0.5;exitY=1;exitDx=0;exitDy=0;entryX=0.5;entryY=0;entryDx=0;entryDy=0;" edge="1" parent="7sSPWeFGZ5AwuCD8jJyG-34" source="7sSPWeFGZ5AwuCD8jJyG-74" target="7sSPWeFGZ5AwuCD8jJyG-54">
          <mxGeometry relative="1" as="geometry" />
        </mxCell>
        <mxCell id="7sSPWeFGZ5AwuCD8jJyG-74" value="" style="ellipse;whiteSpace=wrap;html=1;aspect=fixed;" vertex="1" parent="7sSPWeFGZ5AwuCD8jJyG-34">
          <mxGeometry x="155" y="620" width="30" height="30" as="geometry" />
        </mxCell>
        <mxCell id="7sSPWeFGZ5AwuCD8jJyG-75" style="edgeStyle=orthogonalEdgeStyle;rounded=0;orthogonalLoop=1;jettySize=auto;html=1;exitX=1;exitY=0.5;exitDx=0;exitDy=0;entryX=1;entryY=0.5;entryDx=0;entryDy=0;" edge="1" parent="7sSPWeFGZ5AwuCD8jJyG-34" source="7sSPWeFGZ5AwuCD8jJyG-77" target="7sSPWeFGZ5AwuCD8jJyG-74">
          <mxGeometry relative="1" as="geometry" />
        </mxCell>
        <mxCell id="7sSPWeFGZ5AwuCD8jJyG-76" style="edgeStyle=orthogonalEdgeStyle;rounded=0;orthogonalLoop=1;jettySize=auto;html=1;entryX=0;entryY=0.5;entryDx=0;entryDy=0;" edge="1" parent="7sSPWeFGZ5AwuCD8jJyG-34" source="7sSPWeFGZ5AwuCD8jJyG-77" target="7sSPWeFGZ5AwuCD8jJyG-82">
          <mxGeometry relative="1" as="geometry">
            <mxPoint x="170" y="1380" as="targetPoint" />
            <Array as="points">
              <mxPoint x="170" y="1375" />
            </Array>
          </mxGeometry>
        </mxCell>
        <mxCell id="7sSPWeFGZ5AwuCD8jJyG-77" value="ต้องการซื้อสินค้า&lt;div&gt;หรือไม่&lt;/div&gt;" style="rhombus;whiteSpace=wrap;html=1;" vertex="1" parent="7sSPWeFGZ5AwuCD8jJyG-34">
          <mxGeometry x="117.5" y="1200" width="105" height="80" as="geometry" />
        </mxCell>
        <mxCell id="7sSPWeFGZ5AwuCD8jJyG-78" style="edgeStyle=orthogonalEdgeStyle;rounded=0;orthogonalLoop=1;jettySize=auto;html=1;" edge="1" parent="7sSPWeFGZ5AwuCD8jJyG-34" source="7sSPWeFGZ5AwuCD8jJyG-80">
          <mxGeometry relative="1" as="geometry">
            <mxPoint x="500" y="630" as="targetPoint" />
            <Array as="points">
              <mxPoint x="410" y="1250" />
              <mxPoint x="410" y="630" />
            </Array>
          </mxGeometry>
        </mxCell>
        <mxCell id="7sSPWeFGZ5AwuCD8jJyG-79" style="edgeStyle=orthogonalEdgeStyle;rounded=0;orthogonalLoop=1;jettySize=auto;html=1;entryX=1;entryY=0.5;entryDx=0;entryDy=0;" edge="1" parent="7sSPWeFGZ5AwuCD8jJyG-34" source="7sSPWeFGZ5AwuCD8jJyG-80" target="7sSPWeFGZ5AwuCD8jJyG-82">
          <mxGeometry relative="1" as="geometry">
            <mxPoint x="520" y="1380" as="targetPoint" />
            <Array as="points">
              <mxPoint x="520" y="1375" />
            </Array>
          </mxGeometry>
        </mxCell>
        <mxCell id="7sSPWeFGZ5AwuCD8jJyG-80" value="ต้องการซื้อสินค้า&lt;div&gt;หรือไม่&lt;/div&gt;" style="rhombus;whiteSpace=wrap;html=1;" vertex="1" parent="7sSPWeFGZ5AwuCD8jJyG-34">
          <mxGeometry x="467.5" y="1210" width="105" height="80" as="geometry" />
        </mxCell>
        <mxCell id="7sSPWeFGZ5AwuCD8jJyG-81" style="edgeStyle=orthogonalEdgeStyle;rounded=0;orthogonalLoop=1;jettySize=auto;html=1;entryX=0.5;entryY=0;entryDx=0;entryDy=0;" edge="1" parent="7sSPWeFGZ5AwuCD8jJyG-34" source="7sSPWeFGZ5AwuCD8jJyG-82" target="7sSPWeFGZ5AwuCD8jJyG-84">
          <mxGeometry relative="1" as="geometry" />
        </mxCell>
        <mxCell id="7sSPWeFGZ5AwuCD8jJyG-82" value="" style="ellipse;whiteSpace=wrap;html=1;aspect=fixed;" vertex="1" parent="7sSPWeFGZ5AwuCD8jJyG-34">
          <mxGeometry x="320" y="1360" width="30" height="30" as="geometry" />
        </mxCell>
        <mxCell id="7sSPWeFGZ5AwuCD8jJyG-83" style="edgeStyle=orthogonalEdgeStyle;rounded=0;orthogonalLoop=1;jettySize=auto;html=1;entryX=0.5;entryY=0;entryDx=0;entryDy=0;" edge="1" parent="7sSPWeFGZ5AwuCD8jJyG-34" source="7sSPWeFGZ5AwuCD8jJyG-84" target="7sSPWeFGZ5AwuCD8jJyG-86">
          <mxGeometry relative="1" as="geometry" />
        </mxCell>
        <mxCell id="7sSPWeFGZ5AwuCD8jJyG-84" value="แสดงข้อมูลสินค้าที่เลือก" style="rounded=0;whiteSpace=wrap;html=1;" vertex="1" parent="7sSPWeFGZ5AwuCD8jJyG-34">
          <mxGeometry x="275" y="1450" width="120" height="40" as="geometry" />
        </mxCell>
        <mxCell id="7sSPWeFGZ5AwuCD8jJyG-85" style="edgeStyle=orthogonalEdgeStyle;rounded=0;orthogonalLoop=1;jettySize=auto;html=1;" edge="1" parent="7sSPWeFGZ5AwuCD8jJyG-34" source="7sSPWeFGZ5AwuCD8jJyG-86" target="7sSPWeFGZ5AwuCD8jJyG-90">
          <mxGeometry relative="1" as="geometry" />
        </mxCell>
        <mxCell id="7sSPWeFGZ5AwuCD8jJyG-86" value="แสดงราคาที่ต้องชำระ" style="rounded=0;whiteSpace=wrap;html=1;" vertex="1" parent="7sSPWeFGZ5AwuCD8jJyG-34">
          <mxGeometry x="275" y="1530" width="120" height="40" as="geometry" />
        </mxCell>
        <mxCell id="7sSPWeFGZ5AwuCD8jJyG-87" style="edgeStyle=orthogonalEdgeStyle;rounded=0;orthogonalLoop=1;jettySize=auto;html=1;entryX=0.5;entryY=0;entryDx=0;entryDy=0;" edge="1" parent="7sSPWeFGZ5AwuCD8jJyG-34" source="7sSPWeFGZ5AwuCD8jJyG-88" target="7sSPWeFGZ5AwuCD8jJyG-91">
          <mxGeometry relative="1" as="geometry" />
        </mxCell>
        <mxCell id="7sSPWeFGZ5AwuCD8jJyG-88" value="ชำระเงินสำเร็จ" style="rounded=0;whiteSpace=wrap;html=1;" vertex="1" parent="7sSPWeFGZ5AwuCD8jJyG-34">
          <mxGeometry x="275" y="1680" width="120" height="40" as="geometry" />
        </mxCell>
        <mxCell id="7sSPWeFGZ5AwuCD8jJyG-89" style="edgeStyle=orthogonalEdgeStyle;rounded=0;orthogonalLoop=1;jettySize=auto;html=1;entryX=0.5;entryY=0;entryDx=0;entryDy=0;" edge="1" parent="7sSPWeFGZ5AwuCD8jJyG-34" source="7sSPWeFGZ5AwuCD8jJyG-90" target="7sSPWeFGZ5AwuCD8jJyG-88">
          <mxGeometry relative="1" as="geometry" />
        </mxCell>
        <mxCell id="7sSPWeFGZ5AwuCD8jJyG-90" value="เลือกการชำระเงิน" style="shape=process;whiteSpace=wrap;html=1;backgroundOutline=1;" vertex="1" parent="7sSPWeFGZ5AwuCD8jJyG-34">
          <mxGeometry x="275" y="1610" width="120" height="40" as="geometry" />
        </mxCell>
        <mxCell id="7sSPWeFGZ5AwuCD8jJyG-91" value="&lt;font data-font-src=&quot;https://fonts.googleapis.com/css?family=Sarabun&quot; face=&quot;Sarabun&quot;&gt;สิ้นสุด&lt;/font&gt;" style="ellipse;whiteSpace=wrap;html=1;" vertex="1" parent="7sSPWeFGZ5AwuCD8jJyG-34">
          <mxGeometry x="270" y="1760" width="130" height="30" as="geometry" />
        </mxCell>
        <mxCell id="7sSPWeFGZ5AwuCD8jJyG-92" value="&lt;font data-font-src=&quot;https://fonts.googleapis.com/css?family=Sarabun&quot; face=&quot;Sarabun&quot;&gt;โจทย์ปัญหา&lt;/font&gt;" style="swimlane;whiteSpace=wrap;html=1;" vertex="1" parent="1">
          <mxGeometry x="-720" y="320" width="640" height="240" as="geometry" />
        </mxCell>
        <mxCell id="7sSPWeFGZ5AwuCD8jJyG-93" value="&lt;font data-font-src=&quot;https://fonts.googleapis.com/css?family=Sarabun&quot; face=&quot;Sarabun&quot; style=&quot;font-size: 14px;&quot;&gt;จงเขียน Flowchart เพื่อแสดงขั้นตอนการทำงาน ของเครื่องขายน้ำอัตโนมัติที่ชื่อว่า &quot;ตะพาบลอย&quot;&lt;br&gt;โดยจะต้องมีสินค้าดังนี้&lt;br&gt;&lt;u&gt;ประเภทน้ำ&lt;span style=&quot;white-space: pre;&quot;&gt;&#x9;&lt;/span&gt;&lt;span style=&quot;white-space: pre;&quot;&gt;&#x9;&lt;/span&gt;&lt;span style=&quot;white-space: pre;&quot;&gt;&#x9;&lt;/span&gt;&lt;span style=&quot;white-space: pre;&quot;&gt;&#x9;&lt;/span&gt;&lt;span style=&quot;white-space: pre;&quot;&gt;&#x9;&lt;/span&gt;&lt;span style=&quot;white-space: pre;&quot;&gt;&#x9;&lt;span style=&quot;white-space: pre;&quot;&gt;&#x9;&lt;/span&gt;ข&lt;/span&gt;นม&lt;/u&gt;&lt;br&gt;&lt;span style=&quot;white-space: pre;&quot;&gt;&#x9;&lt;/span&gt;- โค้ก กระป๋องละ 10 บาท&lt;span style=&quot;white-space: pre;&quot;&gt;&#x9;&lt;/span&gt;&lt;span style=&quot;white-space: pre;&quot;&gt;&#x9;&lt;/span&gt;&lt;span style=&quot;white-space: pre;&quot;&gt;&#x9;&lt;/span&gt;&lt;span style=&quot;white-space: pre;&quot;&gt;&#x9;&lt;/span&gt;- เมล็ดทานตะวัน 13 บาท&lt;br&gt;&lt;span style=&quot;white-space: pre;&quot;&gt;&#x9;&lt;/span&gt;- น้ำเขียว กระป๋องละ 12 บาท&lt;span style=&quot;white-space: pre;&quot;&gt;&#x9;&lt;/span&gt;&lt;span style=&quot;white-space: pre;&quot;&gt;&#x9;&lt;/span&gt;&lt;span style=&quot;white-space: pre;&quot;&gt;&#x9;&lt;/span&gt;- ถั่วแปบ 20 บาท&lt;br&gt;&lt;span style=&quot;white-space: pre;&quot;&gt;&#x9;&lt;/span&gt;- อเมริกาโน่ 30 บาท&lt;span style=&quot;white-space: pre;&quot;&gt;&#x9;&lt;/span&gt;&lt;span style=&quot;white-space: pre;&quot;&gt;&#x9;&lt;/span&gt;&lt;span style=&quot;white-space: pre;&quot;&gt;&#x9;&lt;/span&gt;&lt;span style=&quot;white-space: pre;&quot;&gt;&#x9;&lt;/span&gt;&lt;span style=&quot;white-space: pre;&quot;&gt;&#x9;&lt;/span&gt;- จิ้นส้มหมก 15 บาท&lt;br&gt;&lt;span style=&quot;white-space: pre;&quot;&gt;&#x9;&lt;/span&gt;- ลาเต้ หวานเจี๊ยบ 35 บาท&lt;span style=&quot;white-space: pre;&quot;&gt;&#x9;&lt;/span&gt;&lt;br&gt;&lt;br&gt;&lt;u&gt;สิ่งที่ระบบควรจะทำได้&lt;/u&gt;&lt;br&gt;&lt;span style=&quot;white-space: pre;&quot;&gt;&#x9;&lt;/span&gt;- ลูกค้าเลือกสินค้า, ระบบจะต้องรวมยอดขาย และรวมรายการสินค้าทั้งหมดที่ลูกค้าเลือก&lt;br&gt;&lt;span style=&quot;white-space: pre;&quot;&gt;&#x9;&lt;/span&gt;- สรุปยอดว่าเหลือเงินในตู้อีกเท่าไหร่ เหลือเหรียญอะไรบ้าง? ธนบัตรอะไรบ้าง? อย่างละเท่าไหร่?&lt;br&gt;&lt;br&gt;&lt;br&gt;&lt;/font&gt;" style="text;html=1;align=left;verticalAlign=middle;resizable=0;points=[];autosize=1;strokeColor=none;fillColor=none;fontSize=14;" vertex="1" parent="7sSPWeFGZ5AwuCD8jJyG-92">
          <mxGeometry x="25" y="30" width="580" height="240" as="geometry" />
        </mxCell>
        <mxCell id="7sSPWeFGZ5AwuCD8jJyG-94" value="ระบบตรวจสอบสินค้า" style="swimlane;fontFamily=Sarabun;fontSource=https%3A%2F%2Ffonts.googleapis.com%2Fcss%3Ffamily%3DSarabun;startSize=23;" vertex="1" parent="1">
          <mxGeometry x="-50" y="620" width="730" height="1300" as="geometry" />
        </mxCell>
        <mxCell id="7sSPWeFGZ5AwuCD8jJyG-95" style="edgeStyle=orthogonalEdgeStyle;rounded=0;orthogonalLoop=1;jettySize=auto;html=1;entryX=0.5;entryY=0;entryDx=0;entryDy=0;" edge="1" parent="7sSPWeFGZ5AwuCD8jJyG-94" source="7sSPWeFGZ5AwuCD8jJyG-96" target="7sSPWeFGZ5AwuCD8jJyG-119">
          <mxGeometry relative="1" as="geometry" />
        </mxCell>
        <mxCell id="7sSPWeFGZ5AwuCD8jJyG-96" value="&lt;font data-font-src=&quot;https://fonts.googleapis.com/css?family=Sarabun&quot; face=&quot;Sarabun&quot;&gt;เริ่มต้น&lt;/font&gt;" style="ellipse;whiteSpace=wrap;html=1;" vertex="1" parent="7sSPWeFGZ5AwuCD8jJyG-94">
          <mxGeometry x="310" y="50" width="150" height="30" as="geometry" />
        </mxCell>
        <mxCell id="7sSPWeFGZ5AwuCD8jJyG-97" style="edgeStyle=orthogonalEdgeStyle;rounded=0;orthogonalLoop=1;jettySize=auto;html=1;entryX=1;entryY=0.5;entryDx=0;entryDy=0;" edge="1" parent="7sSPWeFGZ5AwuCD8jJyG-94" source="7sSPWeFGZ5AwuCD8jJyG-98" target="7sSPWeFGZ5AwuCD8jJyG-133">
          <mxGeometry relative="1" as="geometry" />
        </mxCell>
        <mxCell id="7sSPWeFGZ5AwuCD8jJyG-98" value="โค้ก 10 บาท" style="rhombus;whiteSpace=wrap;html=1;" vertex="1" parent="7sSPWeFGZ5AwuCD8jJyG-94">
          <mxGeometry x="150" y="380" width="105" height="80" as="geometry" />
        </mxCell>
        <mxCell id="7sSPWeFGZ5AwuCD8jJyG-99" style="edgeStyle=orthogonalEdgeStyle;rounded=0;orthogonalLoop=1;jettySize=auto;html=1;exitX=0.5;exitY=0;exitDx=0;exitDy=0;" edge="1" parent="7sSPWeFGZ5AwuCD8jJyG-94" source="7sSPWeFGZ5AwuCD8jJyG-102">
          <mxGeometry relative="1" as="geometry">
            <mxPoint x="202.85714285714312" y="520" as="targetPoint" />
          </mxGeometry>
        </mxCell>
        <mxCell id="7sSPWeFGZ5AwuCD8jJyG-100" style="edgeStyle=orthogonalEdgeStyle;rounded=0;orthogonalLoop=1;jettySize=auto;html=1;entryX=0.5;entryY=0;entryDx=0;entryDy=0;" edge="1" parent="7sSPWeFGZ5AwuCD8jJyG-94" source="7sSPWeFGZ5AwuCD8jJyG-102" target="7sSPWeFGZ5AwuCD8jJyG-105">
          <mxGeometry relative="1" as="geometry" />
        </mxCell>
        <mxCell id="7sSPWeFGZ5AwuCD8jJyG-101" style="edgeStyle=orthogonalEdgeStyle;rounded=0;orthogonalLoop=1;jettySize=auto;html=1;entryX=1;entryY=0.5;entryDx=0;entryDy=0;" edge="1" parent="7sSPWeFGZ5AwuCD8jJyG-94" source="7sSPWeFGZ5AwuCD8jJyG-102" target="7sSPWeFGZ5AwuCD8jJyG-135">
          <mxGeometry relative="1" as="geometry" />
        </mxCell>
        <mxCell id="7sSPWeFGZ5AwuCD8jJyG-102" value="น้ำเขียว 12 บาท" style="rhombus;whiteSpace=wrap;html=1;" vertex="1" parent="7sSPWeFGZ5AwuCD8jJyG-94">
          <mxGeometry x="150" y="500" width="105" height="80" as="geometry" />
        </mxCell>
        <mxCell id="7sSPWeFGZ5AwuCD8jJyG-103" style="edgeStyle=orthogonalEdgeStyle;rounded=0;orthogonalLoop=1;jettySize=auto;html=1;entryX=0.5;entryY=0;entryDx=0;entryDy=0;" edge="1" parent="7sSPWeFGZ5AwuCD8jJyG-94" source="7sSPWeFGZ5AwuCD8jJyG-105" target="7sSPWeFGZ5AwuCD8jJyG-108">
          <mxGeometry relative="1" as="geometry" />
        </mxCell>
        <mxCell id="7sSPWeFGZ5AwuCD8jJyG-104" style="edgeStyle=orthogonalEdgeStyle;rounded=0;orthogonalLoop=1;jettySize=auto;html=1;" edge="1" parent="7sSPWeFGZ5AwuCD8jJyG-94" source="7sSPWeFGZ5AwuCD8jJyG-105" target="7sSPWeFGZ5AwuCD8jJyG-137">
          <mxGeometry relative="1" as="geometry" />
        </mxCell>
        <mxCell id="7sSPWeFGZ5AwuCD8jJyG-105" value="อเมริกาโน่&lt;div&gt;30 บาท&lt;/div&gt;" style="rhombus;whiteSpace=wrap;html=1;" vertex="1" parent="7sSPWeFGZ5AwuCD8jJyG-94">
          <mxGeometry x="150" y="630" width="105" height="80" as="geometry" />
        </mxCell>
        <mxCell id="7sSPWeFGZ5AwuCD8jJyG-106" style="edgeStyle=orthogonalEdgeStyle;rounded=0;orthogonalLoop=1;jettySize=auto;html=1;exitX=0.5;exitY=1;exitDx=0;exitDy=0;entryX=0.5;entryY=0;entryDx=0;entryDy=0;" edge="1" parent="7sSPWeFGZ5AwuCD8jJyG-94" source="7sSPWeFGZ5AwuCD8jJyG-108" target="7sSPWeFGZ5AwuCD8jJyG-129">
          <mxGeometry relative="1" as="geometry" />
        </mxCell>
        <mxCell id="7sSPWeFGZ5AwuCD8jJyG-107" style="edgeStyle=orthogonalEdgeStyle;rounded=0;orthogonalLoop=1;jettySize=auto;html=1;entryX=1;entryY=0.5;entryDx=0;entryDy=0;" edge="1" parent="7sSPWeFGZ5AwuCD8jJyG-94" source="7sSPWeFGZ5AwuCD8jJyG-108" target="7sSPWeFGZ5AwuCD8jJyG-138">
          <mxGeometry relative="1" as="geometry" />
        </mxCell>
        <mxCell id="7sSPWeFGZ5AwuCD8jJyG-108" value="ลาเต้&lt;div&gt;35 บาท&lt;/div&gt;" style="rhombus;whiteSpace=wrap;html=1;" vertex="1" parent="7sSPWeFGZ5AwuCD8jJyG-94">
          <mxGeometry x="150" y="760" width="105" height="80" as="geometry" />
        </mxCell>
        <mxCell id="7sSPWeFGZ5AwuCD8jJyG-109" style="edgeStyle=orthogonalEdgeStyle;rounded=0;orthogonalLoop=1;jettySize=auto;html=1;entryX=0.5;entryY=0;entryDx=0;entryDy=0;" edge="1" parent="7sSPWeFGZ5AwuCD8jJyG-94" source="7sSPWeFGZ5AwuCD8jJyG-111" target="7sSPWeFGZ5AwuCD8jJyG-117">
          <mxGeometry relative="1" as="geometry" />
        </mxCell>
        <mxCell id="7sSPWeFGZ5AwuCD8jJyG-110" style="edgeStyle=orthogonalEdgeStyle;rounded=0;orthogonalLoop=1;jettySize=auto;html=1;entryX=0;entryY=0.5;entryDx=0;entryDy=0;" edge="1" parent="7sSPWeFGZ5AwuCD8jJyG-94" source="7sSPWeFGZ5AwuCD8jJyG-111" target="7sSPWeFGZ5AwuCD8jJyG-140">
          <mxGeometry relative="1" as="geometry" />
        </mxCell>
        <mxCell id="7sSPWeFGZ5AwuCD8jJyG-111" value="เมล็ด&lt;div&gt;ทานตะวัน&lt;/div&gt;&lt;div&gt;13 บาท&lt;/div&gt;" style="rhombus;whiteSpace=wrap;html=1;" vertex="1" parent="7sSPWeFGZ5AwuCD8jJyG-94">
          <mxGeometry x="510" y="420" width="105" height="80" as="geometry" />
        </mxCell>
        <mxCell id="7sSPWeFGZ5AwuCD8jJyG-112" style="edgeStyle=orthogonalEdgeStyle;rounded=0;orthogonalLoop=1;jettySize=auto;html=1;entryX=0.5;entryY=0;entryDx=0;entryDy=0;" edge="1" parent="7sSPWeFGZ5AwuCD8jJyG-94" source="7sSPWeFGZ5AwuCD8jJyG-114" target="7sSPWeFGZ5AwuCD8jJyG-131">
          <mxGeometry relative="1" as="geometry" />
        </mxCell>
        <mxCell id="7sSPWeFGZ5AwuCD8jJyG-113" style="edgeStyle=orthogonalEdgeStyle;rounded=0;orthogonalLoop=1;jettySize=auto;html=1;entryX=0;entryY=0.5;entryDx=0;entryDy=0;" edge="1" parent="7sSPWeFGZ5AwuCD8jJyG-94" source="7sSPWeFGZ5AwuCD8jJyG-114" target="7sSPWeFGZ5AwuCD8jJyG-143">
          <mxGeometry relative="1" as="geometry" />
        </mxCell>
        <mxCell id="7sSPWeFGZ5AwuCD8jJyG-114" value="ถั่วแปบ&lt;div&gt;20 บาท&lt;/div&gt;" style="rhombus;whiteSpace=wrap;html=1;" vertex="1" parent="7sSPWeFGZ5AwuCD8jJyG-94">
          <mxGeometry x="510" y="680" width="105" height="80" as="geometry" />
        </mxCell>
        <mxCell id="7sSPWeFGZ5AwuCD8jJyG-115" style="edgeStyle=orthogonalEdgeStyle;rounded=0;orthogonalLoop=1;jettySize=auto;html=1;" edge="1" parent="7sSPWeFGZ5AwuCD8jJyG-94" source="7sSPWeFGZ5AwuCD8jJyG-117" target="7sSPWeFGZ5AwuCD8jJyG-114">
          <mxGeometry relative="1" as="geometry" />
        </mxCell>
        <mxCell id="7sSPWeFGZ5AwuCD8jJyG-116" style="edgeStyle=orthogonalEdgeStyle;rounded=0;orthogonalLoop=1;jettySize=auto;html=1;entryX=0;entryY=0.5;entryDx=0;entryDy=0;" edge="1" parent="7sSPWeFGZ5AwuCD8jJyG-94" source="7sSPWeFGZ5AwuCD8jJyG-117" target="7sSPWeFGZ5AwuCD8jJyG-142">
          <mxGeometry relative="1" as="geometry" />
        </mxCell>
        <mxCell id="7sSPWeFGZ5AwuCD8jJyG-117" value="จิ้นส้มหมก&lt;div&gt;15 บาท&lt;/div&gt;" style="rhombus;whiteSpace=wrap;html=1;" vertex="1" parent="7sSPWeFGZ5AwuCD8jJyG-94">
          <mxGeometry x="510" y="550" width="105" height="80" as="geometry" />
        </mxCell>
        <mxCell id="7sSPWeFGZ5AwuCD8jJyG-118" style="edgeStyle=orthogonalEdgeStyle;rounded=0;orthogonalLoop=1;jettySize=auto;html=1;entryX=0.5;entryY=0;entryDx=0;entryDy=0;" edge="1" parent="7sSPWeFGZ5AwuCD8jJyG-94" source="7sSPWeFGZ5AwuCD8jJyG-119" target="7sSPWeFGZ5AwuCD8jJyG-126">
          <mxGeometry relative="1" as="geometry" />
        </mxCell>
        <mxCell id="7sSPWeFGZ5AwuCD8jJyG-119" value="ตรวจสอบสินค้าในเครื่อง" style="rounded=0;whiteSpace=wrap;html=1;" vertex="1" parent="7sSPWeFGZ5AwuCD8jJyG-94">
          <mxGeometry x="325" y="130" width="120" height="40" as="geometry" />
        </mxCell>
        <mxCell id="7sSPWeFGZ5AwuCD8jJyG-120" style="edgeStyle=orthogonalEdgeStyle;rounded=0;orthogonalLoop=1;jettySize=auto;html=1;entryX=0;entryY=0.5;entryDx=0;entryDy=0;" edge="1" parent="7sSPWeFGZ5AwuCD8jJyG-94" source="7sSPWeFGZ5AwuCD8jJyG-122" target="7sSPWeFGZ5AwuCD8jJyG-126">
          <mxGeometry relative="1" as="geometry">
            <Array as="points">
              <mxPoint x="203" y="210" />
            </Array>
          </mxGeometry>
        </mxCell>
        <mxCell id="7sSPWeFGZ5AwuCD8jJyG-121" style="edgeStyle=orthogonalEdgeStyle;rounded=0;orthogonalLoop=1;jettySize=auto;html=1;entryX=0.5;entryY=0;entryDx=0;entryDy=0;" edge="1" parent="7sSPWeFGZ5AwuCD8jJyG-94" source="7sSPWeFGZ5AwuCD8jJyG-122" target="7sSPWeFGZ5AwuCD8jJyG-98">
          <mxGeometry relative="1" as="geometry" />
        </mxCell>
        <mxCell id="7sSPWeFGZ5AwuCD8jJyG-122" value="ประเภทน้ำ" style="rhombus;whiteSpace=wrap;html=1;" vertex="1" parent="7sSPWeFGZ5AwuCD8jJyG-94">
          <mxGeometry x="150" y="270" width="105" height="80" as="geometry" />
        </mxCell>
        <mxCell id="7sSPWeFGZ5AwuCD8jJyG-123" style="edgeStyle=orthogonalEdgeStyle;rounded=0;orthogonalLoop=1;jettySize=auto;html=1;entryX=1;entryY=0.5;entryDx=0;entryDy=0;" edge="1" parent="7sSPWeFGZ5AwuCD8jJyG-94" source="7sSPWeFGZ5AwuCD8jJyG-125" target="7sSPWeFGZ5AwuCD8jJyG-126">
          <mxGeometry relative="1" as="geometry">
            <Array as="points">
              <mxPoint x="563" y="210" />
            </Array>
          </mxGeometry>
        </mxCell>
        <mxCell id="7sSPWeFGZ5AwuCD8jJyG-124" style="edgeStyle=orthogonalEdgeStyle;rounded=0;orthogonalLoop=1;jettySize=auto;html=1;entryX=0.5;entryY=0;entryDx=0;entryDy=0;" edge="1" parent="7sSPWeFGZ5AwuCD8jJyG-94" source="7sSPWeFGZ5AwuCD8jJyG-125" target="7sSPWeFGZ5AwuCD8jJyG-111">
          <mxGeometry relative="1" as="geometry" />
        </mxCell>
        <mxCell id="7sSPWeFGZ5AwuCD8jJyG-125" value="ประเภทขนม" style="rhombus;whiteSpace=wrap;html=1;" vertex="1" parent="7sSPWeFGZ5AwuCD8jJyG-94">
          <mxGeometry x="510" y="290" width="105" height="80" as="geometry" />
        </mxCell>
        <mxCell id="7sSPWeFGZ5AwuCD8jJyG-126" value="" style="ellipse;whiteSpace=wrap;html=1;aspect=fixed;" vertex="1" parent="7sSPWeFGZ5AwuCD8jJyG-94">
          <mxGeometry x="365" y="190" width="40" height="40" as="geometry" />
        </mxCell>
        <mxCell id="7sSPWeFGZ5AwuCD8jJyG-127" style="edgeStyle=orthogonalEdgeStyle;rounded=0;orthogonalLoop=1;jettySize=auto;html=1;entryX=0.503;entryY=-0.049;entryDx=0;entryDy=0;entryPerimeter=0;" edge="1" parent="7sSPWeFGZ5AwuCD8jJyG-94" source="7sSPWeFGZ5AwuCD8jJyG-98" target="7sSPWeFGZ5AwuCD8jJyG-102">
          <mxGeometry relative="1" as="geometry" />
        </mxCell>
        <mxCell id="7sSPWeFGZ5AwuCD8jJyG-128" style="edgeStyle=orthogonalEdgeStyle;rounded=0;orthogonalLoop=1;jettySize=auto;html=1;entryX=0;entryY=0.5;entryDx=0;entryDy=0;" edge="1" parent="7sSPWeFGZ5AwuCD8jJyG-94" source="7sSPWeFGZ5AwuCD8jJyG-129" target="7sSPWeFGZ5AwuCD8jJyG-159">
          <mxGeometry relative="1" as="geometry">
            <Array as="points">
              <mxPoint x="203" y="1050" />
            </Array>
          </mxGeometry>
        </mxCell>
        <mxCell id="7sSPWeFGZ5AwuCD8jJyG-129" value="คำนวณสินค้าน้ำที่เหลือ" style="rounded=0;whiteSpace=wrap;html=1;" vertex="1" parent="7sSPWeFGZ5AwuCD8jJyG-94">
          <mxGeometry x="142.5" y="920" width="120" height="40" as="geometry" />
        </mxCell>
        <mxCell id="7sSPWeFGZ5AwuCD8jJyG-130" style="edgeStyle=orthogonalEdgeStyle;rounded=0;orthogonalLoop=1;jettySize=auto;html=1;entryX=1;entryY=0.5;entryDx=0;entryDy=0;" edge="1" parent="7sSPWeFGZ5AwuCD8jJyG-94" source="7sSPWeFGZ5AwuCD8jJyG-131" target="7sSPWeFGZ5AwuCD8jJyG-159">
          <mxGeometry relative="1" as="geometry">
            <Array as="points">
              <mxPoint x="563" y="1050" />
            </Array>
          </mxGeometry>
        </mxCell>
        <mxCell id="7sSPWeFGZ5AwuCD8jJyG-131" value="คำนวณสินค้าขนมที่เหลือ" style="rounded=0;whiteSpace=wrap;html=1;" vertex="1" parent="7sSPWeFGZ5AwuCD8jJyG-94">
          <mxGeometry x="502.5" y="920" width="120" height="40" as="geometry" />
        </mxCell>
        <mxCell id="7sSPWeFGZ5AwuCD8jJyG-132" style="edgeStyle=orthogonalEdgeStyle;rounded=0;orthogonalLoop=1;jettySize=auto;html=1;entryX=0.5;entryY=0;entryDx=0;entryDy=0;" edge="1" parent="7sSPWeFGZ5AwuCD8jJyG-94" source="7sSPWeFGZ5AwuCD8jJyG-133" target="7sSPWeFGZ5AwuCD8jJyG-135">
          <mxGeometry relative="1" as="geometry" />
        </mxCell>
        <mxCell id="7sSPWeFGZ5AwuCD8jJyG-133" value="" style="ellipse;whiteSpace=wrap;html=1;aspect=fixed;" vertex="1" parent="7sSPWeFGZ5AwuCD8jJyG-94">
          <mxGeometry x="60" y="400" width="40" height="40" as="geometry" />
        </mxCell>
        <mxCell id="7sSPWeFGZ5AwuCD8jJyG-134" style="edgeStyle=orthogonalEdgeStyle;rounded=0;orthogonalLoop=1;jettySize=auto;html=1;entryX=0.5;entryY=0;entryDx=0;entryDy=0;" edge="1" parent="7sSPWeFGZ5AwuCD8jJyG-94" source="7sSPWeFGZ5AwuCD8jJyG-135" target="7sSPWeFGZ5AwuCD8jJyG-137">
          <mxGeometry relative="1" as="geometry" />
        </mxCell>
        <mxCell id="7sSPWeFGZ5AwuCD8jJyG-135" value="" style="ellipse;whiteSpace=wrap;html=1;aspect=fixed;" vertex="1" parent="7sSPWeFGZ5AwuCD8jJyG-94">
          <mxGeometry x="60" y="520" width="40" height="40" as="geometry" />
        </mxCell>
        <mxCell id="7sSPWeFGZ5AwuCD8jJyG-136" style="edgeStyle=orthogonalEdgeStyle;rounded=0;orthogonalLoop=1;jettySize=auto;html=1;entryX=0.5;entryY=0;entryDx=0;entryDy=0;" edge="1" parent="7sSPWeFGZ5AwuCD8jJyG-94" source="7sSPWeFGZ5AwuCD8jJyG-137" target="7sSPWeFGZ5AwuCD8jJyG-138">
          <mxGeometry relative="1" as="geometry" />
        </mxCell>
        <mxCell id="7sSPWeFGZ5AwuCD8jJyG-137" value="" style="ellipse;whiteSpace=wrap;html=1;aspect=fixed;" vertex="1" parent="7sSPWeFGZ5AwuCD8jJyG-94">
          <mxGeometry x="60" y="650" width="40" height="40" as="geometry" />
        </mxCell>
        <mxCell id="7sSPWeFGZ5AwuCD8jJyG-138" value="" style="ellipse;whiteSpace=wrap;html=1;aspect=fixed;" vertex="1" parent="7sSPWeFGZ5AwuCD8jJyG-94">
          <mxGeometry x="60" y="780" width="40" height="40" as="geometry" />
        </mxCell>
        <mxCell id="7sSPWeFGZ5AwuCD8jJyG-139" style="edgeStyle=orthogonalEdgeStyle;rounded=0;orthogonalLoop=1;jettySize=auto;html=1;" edge="1" parent="7sSPWeFGZ5AwuCD8jJyG-94" source="7sSPWeFGZ5AwuCD8jJyG-140" target="7sSPWeFGZ5AwuCD8jJyG-142">
          <mxGeometry relative="1" as="geometry" />
        </mxCell>
        <mxCell id="7sSPWeFGZ5AwuCD8jJyG-140" value="" style="ellipse;whiteSpace=wrap;html=1;aspect=fixed;" vertex="1" parent="7sSPWeFGZ5AwuCD8jJyG-94">
          <mxGeometry x="650" y="440" width="40" height="40" as="geometry" />
        </mxCell>
        <mxCell id="7sSPWeFGZ5AwuCD8jJyG-141" style="edgeStyle=orthogonalEdgeStyle;rounded=0;orthogonalLoop=1;jettySize=auto;html=1;entryX=0.5;entryY=0;entryDx=0;entryDy=0;" edge="1" parent="7sSPWeFGZ5AwuCD8jJyG-94" source="7sSPWeFGZ5AwuCD8jJyG-142" target="7sSPWeFGZ5AwuCD8jJyG-143">
          <mxGeometry relative="1" as="geometry" />
        </mxCell>
        <mxCell id="7sSPWeFGZ5AwuCD8jJyG-142" value="" style="ellipse;whiteSpace=wrap;html=1;aspect=fixed;" vertex="1" parent="7sSPWeFGZ5AwuCD8jJyG-94">
          <mxGeometry x="650" y="570" width="40" height="40" as="geometry" />
        </mxCell>
        <mxCell id="7sSPWeFGZ5AwuCD8jJyG-143" value="" style="ellipse;whiteSpace=wrap;html=1;aspect=fixed;" vertex="1" parent="7sSPWeFGZ5AwuCD8jJyG-94">
          <mxGeometry x="650" y="700" width="40" height="40" as="geometry" />
        </mxCell>
        <mxCell id="7sSPWeFGZ5AwuCD8jJyG-144" value="มี" style="text;html=1;align=center;verticalAlign=middle;whiteSpace=wrap;rounded=0;" vertex="1" parent="7sSPWeFGZ5AwuCD8jJyG-94">
          <mxGeometry x="240" y="380" width="60" height="30" as="geometry" />
        </mxCell>
        <mxCell id="7sSPWeFGZ5AwuCD8jJyG-145" value="yes" style="text;html=1;align=center;verticalAlign=middle;whiteSpace=wrap;rounded=0;" vertex="1" parent="7sSPWeFGZ5AwuCD8jJyG-94">
          <mxGeometry x="240" y="490" width="60" height="30" as="geometry" />
        </mxCell>
        <mxCell id="7sSPWeFGZ5AwuCD8jJyG-146" value="yes" style="text;html=1;align=center;verticalAlign=middle;whiteSpace=wrap;rounded=0;" vertex="1" parent="7sSPWeFGZ5AwuCD8jJyG-94">
          <mxGeometry x="240" y="620" width="60" height="30" as="geometry" />
        </mxCell>
        <mxCell id="7sSPWeFGZ5AwuCD8jJyG-147" value="yes" style="text;html=1;align=center;verticalAlign=middle;whiteSpace=wrap;rounded=0;" vertex="1" parent="7sSPWeFGZ5AwuCD8jJyG-94">
          <mxGeometry x="240" y="760" width="60" height="30" as="geometry" />
        </mxCell>
        <mxCell id="7sSPWeFGZ5AwuCD8jJyG-148" value="no" style="text;html=1;align=center;verticalAlign=middle;whiteSpace=wrap;rounded=0;" vertex="1" parent="7sSPWeFGZ5AwuCD8jJyG-94">
          <mxGeometry x="100" y="380" width="60" height="30" as="geometry" />
        </mxCell>
        <mxCell id="7sSPWeFGZ5AwuCD8jJyG-149" value="no" style="text;html=1;align=center;verticalAlign=middle;whiteSpace=wrap;rounded=0;" vertex="1" parent="7sSPWeFGZ5AwuCD8jJyG-94">
          <mxGeometry x="100" y="500" width="60" height="30" as="geometry" />
        </mxCell>
        <mxCell id="7sSPWeFGZ5AwuCD8jJyG-150" value="no" style="text;html=1;align=center;verticalAlign=middle;whiteSpace=wrap;rounded=0;" vertex="1" parent="7sSPWeFGZ5AwuCD8jJyG-94">
          <mxGeometry x="100" y="620" width="60" height="30" as="geometry" />
        </mxCell>
        <mxCell id="7sSPWeFGZ5AwuCD8jJyG-151" value="no" style="text;html=1;align=center;verticalAlign=middle;whiteSpace=wrap;rounded=0;" vertex="1" parent="7sSPWeFGZ5AwuCD8jJyG-94">
          <mxGeometry x="100" y="760" width="60" height="30" as="geometry" />
        </mxCell>
        <mxCell id="7sSPWeFGZ5AwuCD8jJyG-152" value="yes" style="text;html=1;align=center;verticalAlign=middle;whiteSpace=wrap;rounded=0;" vertex="1" parent="7sSPWeFGZ5AwuCD8jJyG-94">
          <mxGeometry x="490" y="410" width="60" height="30" as="geometry" />
        </mxCell>
        <mxCell id="7sSPWeFGZ5AwuCD8jJyG-153" value="yes" style="text;html=1;align=center;verticalAlign=middle;whiteSpace=wrap;rounded=0;" vertex="1" parent="7sSPWeFGZ5AwuCD8jJyG-94">
          <mxGeometry x="490" y="540" width="60" height="30" as="geometry" />
        </mxCell>
        <mxCell id="7sSPWeFGZ5AwuCD8jJyG-154" value="yes" style="text;html=1;align=center;verticalAlign=middle;whiteSpace=wrap;rounded=0;" vertex="1" parent="7sSPWeFGZ5AwuCD8jJyG-94">
          <mxGeometry x="490" y="650" width="60" height="30" as="geometry" />
        </mxCell>
        <mxCell id="7sSPWeFGZ5AwuCD8jJyG-155" value="no" style="text;html=1;align=center;verticalAlign=middle;whiteSpace=wrap;rounded=0;" vertex="1" parent="7sSPWeFGZ5AwuCD8jJyG-94">
          <mxGeometry x="600" y="420" width="60" height="30" as="geometry" />
        </mxCell>
        <mxCell id="7sSPWeFGZ5AwuCD8jJyG-156" value="no" style="text;html=1;align=center;verticalAlign=middle;whiteSpace=wrap;rounded=0;" vertex="1" parent="7sSPWeFGZ5AwuCD8jJyG-94">
          <mxGeometry x="600" y="550" width="60" height="30" as="geometry" />
        </mxCell>
        <mxCell id="7sSPWeFGZ5AwuCD8jJyG-157" value="no" style="text;html=1;align=center;verticalAlign=middle;whiteSpace=wrap;rounded=0;" vertex="1" parent="7sSPWeFGZ5AwuCD8jJyG-94">
          <mxGeometry x="600" y="670" width="60" height="30" as="geometry" />
        </mxCell>
        <mxCell id="7sSPWeFGZ5AwuCD8jJyG-158" style="edgeStyle=orthogonalEdgeStyle;rounded=0;orthogonalLoop=1;jettySize=auto;html=1;entryX=0.5;entryY=0;entryDx=0;entryDy=0;" edge="1" parent="7sSPWeFGZ5AwuCD8jJyG-94" source="7sSPWeFGZ5AwuCD8jJyG-159" target="7sSPWeFGZ5AwuCD8jJyG-160">
          <mxGeometry relative="1" as="geometry" />
        </mxCell>
        <mxCell id="7sSPWeFGZ5AwuCD8jJyG-159" value="" style="ellipse;whiteSpace=wrap;html=1;aspect=fixed;" vertex="1" parent="7sSPWeFGZ5AwuCD8jJyG-94">
          <mxGeometry x="360" y="1030" width="40" height="40" as="geometry" />
        </mxCell>
        <mxCell id="7sSPWeFGZ5AwuCD8jJyG-160" value="&lt;font data-font-src=&quot;https://fonts.googleapis.com/css?family=Sarabun&quot; face=&quot;Sarabun&quot;&gt;สิ้นสุด&lt;/font&gt;" style="ellipse;whiteSpace=wrap;html=1;" vertex="1" parent="7sSPWeFGZ5AwuCD8jJyG-94">
          <mxGeometry x="305" y="1150" width="150" height="30" as="geometry" />
        </mxCell>
        <mxCell id="7sSPWeFGZ5AwuCD8jJyG-161" value="ระบบชำระเงิน" style="swimlane;fontFamily=Sarabun;fontSource=https%3A%2F%2Ffonts.googleapis.com%2Fcss%3Ffamily%3DSarabun;startSize=23;" vertex="1" parent="1">
          <mxGeometry x="900" y="640" width="1120" height="1570" as="geometry" />
        </mxCell>
        <mxCell id="7sSPWeFGZ5AwuCD8jJyG-162" style="edgeStyle=orthogonalEdgeStyle;rounded=0;orthogonalLoop=1;jettySize=auto;html=1;entryX=0.5;entryY=0;entryDx=0;entryDy=0;" edge="1" parent="7sSPWeFGZ5AwuCD8jJyG-161" source="7sSPWeFGZ5AwuCD8jJyG-163" target="7sSPWeFGZ5AwuCD8jJyG-165">
          <mxGeometry relative="1" as="geometry" />
        </mxCell>
        <mxCell id="7sSPWeFGZ5AwuCD8jJyG-163" value="&lt;font data-font-src=&quot;https://fonts.googleapis.com/css?family=Sarabun&quot; face=&quot;Sarabun&quot;&gt;เริ่มต้น&lt;/font&gt;" style="ellipse;whiteSpace=wrap;html=1;" vertex="1" parent="7sSPWeFGZ5AwuCD8jJyG-161">
          <mxGeometry x="480" y="50" width="150" height="30" as="geometry" />
        </mxCell>
        <mxCell id="7sSPWeFGZ5AwuCD8jJyG-164" style="edgeStyle=orthogonalEdgeStyle;rounded=0;orthogonalLoop=1;jettySize=auto;html=1;entryX=0.5;entryY=0;entryDx=0;entryDy=0;" edge="1" parent="7sSPWeFGZ5AwuCD8jJyG-161" source="7sSPWeFGZ5AwuCD8jJyG-165" target="7sSPWeFGZ5AwuCD8jJyG-168">
          <mxGeometry relative="1" as="geometry" />
        </mxCell>
        <mxCell id="7sSPWeFGZ5AwuCD8jJyG-165" value="เลือกประเภทการชำระเงิน" style="rectangle;whiteSpace=wrap;html=1;" vertex="1" parent="7sSPWeFGZ5AwuCD8jJyG-161">
          <mxGeometry x="475" y="130" width="160" height="60" as="geometry" />
        </mxCell>
        <mxCell id="7sSPWeFGZ5AwuCD8jJyG-200" style="edgeStyle=orthogonalEdgeStyle;rounded=0;orthogonalLoop=1;jettySize=auto;html=1;entryX=0.5;entryY=0;entryDx=0;entryDy=0;" edge="1" parent="7sSPWeFGZ5AwuCD8jJyG-161" source="7sSPWeFGZ5AwuCD8jJyG-168" target="7sSPWeFGZ5AwuCD8jJyG-199">
          <mxGeometry relative="1" as="geometry" />
        </mxCell>
        <mxCell id="7sSPWeFGZ5AwuCD8jJyG-168" value="เงินสด/เหรียญ/แบงค์ หรือ โอนเงิน?" style="rhombus;whiteSpace=wrap;html=1;" vertex="1" parent="7sSPWeFGZ5AwuCD8jJyG-161">
          <mxGeometry x="475" y="240" width="160" height="60" as="geometry" />
        </mxCell>
        <mxCell id="7sSPWeFGZ5AwuCD8jJyG-169" style="edgeStyle=orthogonalEdgeStyle;rounded=0;orthogonalLoop=1;jettySize=auto;html=1;entryX=0.5;entryY=0;entryDx=0;entryDy=0;" edge="1" parent="7sSPWeFGZ5AwuCD8jJyG-161" source="7sSPWeFGZ5AwuCD8jJyG-170" target="7sSPWeFGZ5AwuCD8jJyG-177">
          <mxGeometry relative="1" as="geometry" />
        </mxCell>
        <mxCell id="7sSPWeFGZ5AwuCD8jJyG-202" style="edgeStyle=orthogonalEdgeStyle;rounded=0;orthogonalLoop=1;jettySize=auto;html=1;entryX=1;entryY=0.5;entryDx=0;entryDy=0;" edge="1" parent="7sSPWeFGZ5AwuCD8jJyG-161" source="7sSPWeFGZ5AwuCD8jJyG-170" target="7sSPWeFGZ5AwuCD8jJyG-199">
          <mxGeometry relative="1" as="geometry">
            <Array as="points">
              <mxPoint x="730" y="360" />
            </Array>
          </mxGeometry>
        </mxCell>
        <mxCell id="7sSPWeFGZ5AwuCD8jJyG-170" value="โอนเงิน" style="parallelogram;whiteSpace=wrap;html=1;" vertex="1" parent="7sSPWeFGZ5AwuCD8jJyG-161">
          <mxGeometry x="670" y="460" width="120" height="60" as="geometry" />
        </mxCell>
        <mxCell id="7sSPWeFGZ5AwuCD8jJyG-171" style="edgeStyle=orthogonalEdgeStyle;rounded=0;orthogonalLoop=1;jettySize=auto;html=1;entryX=0.5;entryY=0;entryDx=0;entryDy=0;" edge="1" parent="7sSPWeFGZ5AwuCD8jJyG-161" source="7sSPWeFGZ5AwuCD8jJyG-172" target="7sSPWeFGZ5AwuCD8jJyG-174">
          <mxGeometry relative="1" as="geometry" />
        </mxCell>
        <mxCell id="7sSPWeFGZ5AwuCD8jJyG-201" style="edgeStyle=orthogonalEdgeStyle;rounded=0;orthogonalLoop=1;jettySize=auto;html=1;entryX=0;entryY=0.5;entryDx=0;entryDy=0;" edge="1" parent="7sSPWeFGZ5AwuCD8jJyG-161" source="7sSPWeFGZ5AwuCD8jJyG-172" target="7sSPWeFGZ5AwuCD8jJyG-199">
          <mxGeometry relative="1" as="geometry">
            <Array as="points">
              <mxPoint x="390" y="360" />
            </Array>
          </mxGeometry>
        </mxCell>
        <mxCell id="7sSPWeFGZ5AwuCD8jJyG-172" value="ใส่เงิน" style="parallelogram;whiteSpace=wrap;html=1;" vertex="1" parent="7sSPWeFGZ5AwuCD8jJyG-161">
          <mxGeometry x="330" y="460" width="120" height="60" as="geometry" />
        </mxCell>
        <mxCell id="7sSPWeFGZ5AwuCD8jJyG-173" style="edgeStyle=orthogonalEdgeStyle;rounded=0;orthogonalLoop=1;jettySize=auto;html=1;entryX=0.5;entryY=0;entryDx=0;entryDy=0;" edge="1" parent="7sSPWeFGZ5AwuCD8jJyG-161" source="7sSPWeFGZ5AwuCD8jJyG-174" target="7sSPWeFGZ5AwuCD8jJyG-184">
          <mxGeometry relative="1" as="geometry" />
        </mxCell>
        <mxCell id="7sSPWeFGZ5AwuCD8jJyG-174" value="ตรวจสอบจำนวนเงิน" style="rectangle;whiteSpace=wrap;html=1;" vertex="1" parent="7sSPWeFGZ5AwuCD8jJyG-161">
          <mxGeometry x="320" y="580" width="140" height="60" as="geometry" />
        </mxCell>
        <mxCell id="7sSPWeFGZ5AwuCD8jJyG-175" style="edgeStyle=orthogonalEdgeStyle;rounded=0;orthogonalLoop=1;jettySize=auto;html=1;" edge="1" parent="7sSPWeFGZ5AwuCD8jJyG-161" source="7sSPWeFGZ5AwuCD8jJyG-177">
          <mxGeometry relative="1" as="geometry">
            <mxPoint x="730" y="700" as="targetPoint" />
          </mxGeometry>
        </mxCell>
        <mxCell id="7sSPWeFGZ5AwuCD8jJyG-176" style="edgeStyle=orthogonalEdgeStyle;rounded=0;orthogonalLoop=1;jettySize=auto;html=1;" edge="1" parent="7sSPWeFGZ5AwuCD8jJyG-161" source="7sSPWeFGZ5AwuCD8jJyG-177" target="7sSPWeFGZ5AwuCD8jJyG-193">
          <mxGeometry relative="1" as="geometry" />
        </mxCell>
        <mxCell id="7sSPWeFGZ5AwuCD8jJyG-177" value="ตรวจสอบยอดเงินโอน" style="rectangle;whiteSpace=wrap;html=1;" vertex="1" parent="7sSPWeFGZ5AwuCD8jJyG-161">
          <mxGeometry x="650" y="600" width="160" height="60" as="geometry" />
        </mxCell>
        <mxCell id="7sSPWeFGZ5AwuCD8jJyG-178" style="edgeStyle=orthogonalEdgeStyle;rounded=0;orthogonalLoop=1;jettySize=auto;html=1;entryX=1;entryY=0.5;entryDx=0;entryDy=0;" edge="1" parent="7sSPWeFGZ5AwuCD8jJyG-161" source="7sSPWeFGZ5AwuCD8jJyG-179" target="7sSPWeFGZ5AwuCD8jJyG-181">
          <mxGeometry relative="1" as="geometry">
            <Array as="points">
              <mxPoint x="735" y="1140" />
            </Array>
          </mxGeometry>
        </mxCell>
        <mxCell id="7sSPWeFGZ5AwuCD8jJyG-179" value="การโอนสำเร็จ" style="rectangle;whiteSpace=wrap;html=1;" vertex="1" parent="7sSPWeFGZ5AwuCD8jJyG-161">
          <mxGeometry x="655" y="700" width="160" height="60" as="geometry" />
        </mxCell>
        <mxCell id="7sSPWeFGZ5AwuCD8jJyG-203" style="edgeStyle=orthogonalEdgeStyle;rounded=0;orthogonalLoop=1;jettySize=auto;html=1;entryX=0.5;entryY=0;entryDx=0;entryDy=0;" edge="1" parent="7sSPWeFGZ5AwuCD8jJyG-161" source="7sSPWeFGZ5AwuCD8jJyG-181" target="7sSPWeFGZ5AwuCD8jJyG-190">
          <mxGeometry relative="1" as="geometry" />
        </mxCell>
        <mxCell id="7sSPWeFGZ5AwuCD8jJyG-181" value="" style="ellipse;whiteSpace=wrap;html=1;aspect=fixed;" vertex="1" parent="7sSPWeFGZ5AwuCD8jJyG-161">
          <mxGeometry x="560" y="1120" width="40" height="40" as="geometry" />
        </mxCell>
        <mxCell id="7sSPWeFGZ5AwuCD8jJyG-182" style="edgeStyle=orthogonalEdgeStyle;rounded=0;orthogonalLoop=1;jettySize=auto;html=1;" edge="1" parent="7sSPWeFGZ5AwuCD8jJyG-161" source="7sSPWeFGZ5AwuCD8jJyG-184" target="7sSPWeFGZ5AwuCD8jJyG-187">
          <mxGeometry relative="1" as="geometry" />
        </mxCell>
        <mxCell id="7sSPWeFGZ5AwuCD8jJyG-183" style="edgeStyle=orthogonalEdgeStyle;rounded=0;orthogonalLoop=1;jettySize=auto;html=1;entryX=1;entryY=0.5;entryDx=0;entryDy=0;" edge="1" parent="7sSPWeFGZ5AwuCD8jJyG-161" source="7sSPWeFGZ5AwuCD8jJyG-184" target="7sSPWeFGZ5AwuCD8jJyG-192">
          <mxGeometry relative="1" as="geometry" />
        </mxCell>
        <mxCell id="7sSPWeFGZ5AwuCD8jJyG-184" value="เงินเพียงพอหรือไม่?" style="rhombus;whiteSpace=wrap;html=1;" vertex="1" parent="7sSPWeFGZ5AwuCD8jJyG-161">
          <mxGeometry x="320" y="700" width="140" height="60" as="geometry" />
        </mxCell>
        <mxCell id="7sSPWeFGZ5AwuCD8jJyG-185" style="edgeStyle=orthogonalEdgeStyle;rounded=0;orthogonalLoop=1;jettySize=auto;html=1;" edge="1" parent="7sSPWeFGZ5AwuCD8jJyG-161" source="7sSPWeFGZ5AwuCD8jJyG-187" target="7sSPWeFGZ5AwuCD8jJyG-189">
          <mxGeometry relative="1" as="geometry" />
        </mxCell>
        <mxCell id="7sSPWeFGZ5AwuCD8jJyG-186" style="edgeStyle=orthogonalEdgeStyle;rounded=0;orthogonalLoop=1;jettySize=auto;html=1;entryX=1;entryY=0.5;entryDx=0;entryDy=0;" edge="1" parent="7sSPWeFGZ5AwuCD8jJyG-161" source="7sSPWeFGZ5AwuCD8jJyG-187" target="7sSPWeFGZ5AwuCD8jJyG-191">
          <mxGeometry relative="1" as="geometry" />
        </mxCell>
        <mxCell id="7sSPWeFGZ5AwuCD8jJyG-187" value="มีเงินทอนพอหรือไม่?" style="rhombus;whiteSpace=wrap;html=1;" vertex="1" parent="7sSPWeFGZ5AwuCD8jJyG-161">
          <mxGeometry x="320" y="830" width="140" height="60" as="geometry" />
        </mxCell>
        <mxCell id="7sSPWeFGZ5AwuCD8jJyG-188" style="edgeStyle=orthogonalEdgeStyle;rounded=0;orthogonalLoop=1;jettySize=auto;html=1;entryX=0;entryY=0.5;entryDx=0;entryDy=0;" edge="1" parent="7sSPWeFGZ5AwuCD8jJyG-161" source="7sSPWeFGZ5AwuCD8jJyG-189" target="7sSPWeFGZ5AwuCD8jJyG-181">
          <mxGeometry relative="1" as="geometry">
            <Array as="points">
              <mxPoint x="380" y="1140" />
            </Array>
          </mxGeometry>
        </mxCell>
        <mxCell id="7sSPWeFGZ5AwuCD8jJyG-189" value="ตัดเงิน / คืนเงินทอน" style="rectangle;whiteSpace=wrap;html=1;" vertex="1" parent="7sSPWeFGZ5AwuCD8jJyG-161">
          <mxGeometry x="310" y="960" width="160" height="60" as="geometry" />
        </mxCell>
        <mxCell id="7sSPWeFGZ5AwuCD8jJyG-205" style="edgeStyle=orthogonalEdgeStyle;rounded=0;orthogonalLoop=1;jettySize=auto;html=1;entryX=0.5;entryY=0;entryDx=0;entryDy=0;" edge="1" parent="7sSPWeFGZ5AwuCD8jJyG-161" source="7sSPWeFGZ5AwuCD8jJyG-190" target="7sSPWeFGZ5AwuCD8jJyG-198">
          <mxGeometry relative="1" as="geometry" />
        </mxCell>
        <mxCell id="7sSPWeFGZ5AwuCD8jJyG-190" value="แสดงผล: ชำระเงินสำเร็จ" style="parallelogram;whiteSpace=wrap;html=1;" vertex="1" parent="7sSPWeFGZ5AwuCD8jJyG-161">
          <mxGeometry x="490" y="1230" width="180" height="60" as="geometry" />
        </mxCell>
        <mxCell id="7sSPWeFGZ5AwuCD8jJyG-191" value="ไม่สามารถทำรายการได้" style="parallelogram;whiteSpace=wrap;html=1;" vertex="1" parent="7sSPWeFGZ5AwuCD8jJyG-161">
          <mxGeometry x="130" y="830" width="160" height="60" as="geometry" />
        </mxCell>
        <mxCell id="7sSPWeFGZ5AwuCD8jJyG-192" value="แสดงผล: เงินไม่พอ" style="parallelogram;whiteSpace=wrap;html=1;" vertex="1" parent="7sSPWeFGZ5AwuCD8jJyG-161">
          <mxGeometry x="140" y="700" width="140" height="60" as="geometry" />
        </mxCell>
        <mxCell id="7sSPWeFGZ5AwuCD8jJyG-193" value="แสดงผล: การโอนล้มเหลว" style="parallelogram;whiteSpace=wrap;html=1;" vertex="1" parent="7sSPWeFGZ5AwuCD8jJyG-161">
          <mxGeometry x="850" y="600" width="160" height="60" as="geometry" />
        </mxCell>
        <mxCell id="7sSPWeFGZ5AwuCD8jJyG-194" value="no" style="text;html=1;align=center;verticalAlign=middle;whiteSpace=wrap;rounded=0;" vertex="1" parent="7sSPWeFGZ5AwuCD8jJyG-161">
          <mxGeometry x="300" y="690" width="60" height="30" as="geometry" />
        </mxCell>
        <mxCell id="7sSPWeFGZ5AwuCD8jJyG-195" value="no" style="text;html=1;align=center;verticalAlign=middle;whiteSpace=wrap;rounded=0;" vertex="1" parent="7sSPWeFGZ5AwuCD8jJyG-161">
          <mxGeometry x="300" y="820" width="60" height="30" as="geometry" />
        </mxCell>
        <mxCell id="7sSPWeFGZ5AwuCD8jJyG-196" value="no" style="text;html=1;align=center;verticalAlign=middle;whiteSpace=wrap;rounded=0;" vertex="1" parent="7sSPWeFGZ5AwuCD8jJyG-161">
          <mxGeometry x="800" y="570" width="60" height="30" as="geometry" />
        </mxCell>
        <mxCell id="7sSPWeFGZ5AwuCD8jJyG-197" value="yes" style="text;html=1;align=center;verticalAlign=middle;whiteSpace=wrap;rounded=0;" vertex="1" parent="7sSPWeFGZ5AwuCD8jJyG-161">
          <mxGeometry x="760" y="670" width="60" height="30" as="geometry" />
        </mxCell>
        <mxCell id="7sSPWeFGZ5AwuCD8jJyG-198" value="&lt;font face=&quot;Sarabun&quot;&gt;สิ้นสุด&lt;/font&gt;" style="ellipse;whiteSpace=wrap;html=1;" vertex="1" parent="7sSPWeFGZ5AwuCD8jJyG-161">
          <mxGeometry x="505" y="1340" width="150" height="30" as="geometry" />
        </mxCell>
        <mxCell id="7sSPWeFGZ5AwuCD8jJyG-199" value="" style="ellipse;whiteSpace=wrap;html=1;aspect=fixed;" vertex="1" parent="7sSPWeFGZ5AwuCD8jJyG-161">
          <mxGeometry x="535" y="340" width="40" height="40" as="geometry" />
        </mxCell>
      </root>
    </mxGraphModel>
  </diagram>
</mxfile>
